<?xml version="1.0" encoding="UTF-8"?>
<svg width="120" height="60" viewBox="0 0 120 60" fill="none" xmlns="http://www.w3.org/2000/svg">
  <g>
    <ellipse cx="20" cy="30" rx="16" ry="18" fill="#fff" stroke="#bbb" stroke-width="2"/>
    <ellipse cx="20" cy="45" rx="8" ry="5" fill="#fff"/>
    <circle cx="15" cy="30" r="2.5" fill="#333"/>
    <circle cx="25" cy="30" r="2.5" fill="#333"/>
    <path d="M10 48 Q15 55 20 48 Q25 55 30 48" stroke="#bbb" stroke-width="2" fill="none"/>
  </g>
  <g>
    <ellipse cx="60" cy="25" rx="12" ry="14" fill="#fff" stroke="#bbb" stroke-width="2"/>
    <ellipse cx="60" cy="36" rx="6" ry="3.5" fill="#fff"/>
    <circle cx="56" cy="25" r="1.8" fill="#333"/>
    <circle cx="64" cy="25" r="1.8" fill="#333"/>
    <path d="M52 38 Q56 44 60 38 Q64 44 68 38" stroke="#bbb" stroke-width="2" fill="none"/>
  </g>
  <g>
    <ellipse cx="100" cy="35" rx="10" ry="12" fill="#fff" stroke="#bbb" stroke-width="2"/>
    <ellipse cx="100" cy="44" rx="5" ry="2.5" fill="#fff"/>
    <circle cx="97" cy="35" r="1.5" fill="#333"/>
    <circle cx="103" cy="35" r="1.5" fill="#333"/>
    <path d="M92 46 Q96 52 100 46 Q104 52 108 46" stroke="#bbb" stroke-width="2" fill="none"/>
  </g>
</svg> 