<?xml version="1.0" encoding="UTF-8"?>
<svg width="120" height="120" viewBox="0 0 120 120" fill="none" xmlns="http://www.w3.org/2000/svg">
  <g>
    <ellipse cx="30" cy="90" rx="18" ry="14" fill="#ff7518" stroke="#a34a02" stroke-width="2"/>
    <ellipse cx="30" cy="90" rx="10" ry="4" fill="#ffb347" opacity="0.5"/>
    <rect x="27" y="72" width="6" height="8" rx="2" fill="#a34a02"/>
    <polygon points="24,90 28,95 32,90 36,95 36,92 24,92" fill="#2d2d2d"/>
    <ellipse cx="26" cy="88" rx="2" ry="1.5" fill="#2d2d2d"/>
    <ellipse cx="34" cy="88" rx="2" ry="1.5" fill="#2d2d2d"/>
  </g>
  <g>
    <ellipse cx="80" cy="60" rx="16" ry="12" fill="#ff7518" stroke="#a34a02" stroke-width="2"/>
    <ellipse cx="80" cy="60" rx="8" ry="3" fill="#ffb347" opacity="0.5"/>
    <rect x="77" y="48" width="6" height="7" rx="2" fill="#a34a02"/>
    <polygon points="76,60 80,65 84,60 88,65 88,62 76,62" fill="#2d2d2d"/>
    <ellipse cx="78" cy="58" rx="1.5" ry="1" fill="#2d2d2d"/>
    <ellipse cx="82" cy="58" rx="1.5" ry="1" fill="#2d2d2d"/>
  </g>
  <g>
    <ellipse cx="60" cy="30" rx="10" ry="8" fill="#ff7518" stroke="#a34a02" stroke-width="2"/>
    <ellipse cx="60" cy="30" rx="5" ry="2" fill="#ffb347" opacity="0.5"/>
    <rect x="58" y="20" width="4" height="5" rx="1.5" fill="#a34a02"/>
    <polygon points="57,30 60,33 63,30 66,33 66,31 57,31" fill="#2d2d2d"/>
    <ellipse cx="59" cy="29" rx="1" ry="0.7" fill="#2d2d2d"/>
    <ellipse cx="61" cy="29" rx="1" ry="0.7" fill="#2d2d2d"/>
  </g>
</svg> 