<?xml version="1.0" encoding="UTF-8" standalone="no"?>
<!-- Created with Inkscape (http://www.inkscape.org/) -->

<svg
   version="1.1"
   id="svg1"
   width="220.82668"
   height="220.82668"
   viewBox="0 0 220.82668 220.82668"
   sodipodi:docname="patternhead-pattern73c.eps"
   xmlns:inkscape="http://www.inkscape.org/namespaces/inkscape"
   xmlns:sodipodi="http://sodipodi.sourceforge.net/DTD/sodipodi-0.dtd"
   xmlns="http://www.w3.org/2000/svg"
   xmlns:svg="http://www.w3.org/2000/svg">
  <defs
     id="defs1" />
  <sodipodi:namedview
     id="namedview1"
     pagecolor="#ffffff"
     bordercolor="#000000"
     borderopacity="0.25"
     inkscape:showpageshadow="2"
     inkscape:pageopacity="0.0"
     inkscape:pagecheckerboard="0"
     inkscape:deskcolor="#d1d1d1">
    <inkscape:page
       x="0"
       y="0"
       inkscape:label="1"
       id="page1"
       width="220.82668"
       height="220.82668"
       margin="0"
       bleed="0" />
  </sodipodi:namedview>
  <g
     id="g1"
     inkscape:groupmode="layer"
     inkscape:label="1">
    <path
       id="path1"
       d="M 0,0 H 1656.18 V 1656.18 H 0 V 0"
       style="fill:#bc1f24;fill-opacity:1;fill-rule:nonzero;stroke:none"
       transform="matrix(0.13333333,0,0,-0.13333333,0,220.82667)" />
    <path
       id="path2"
       d="m 1559.41,1575.04 c 0.13,-0.06 0.34,-0.11 0.49,-0.13 36.66,-9.44 68.54,-8.18 96.28,-0.05 v 10.61 c -26.64,-8.4 -57.61,-9.75 -94.21,-0.43 -38.95,10.04 -84.28,32.46 -136.49,71.14 h -17.19 c 44.07,-33.96 83.6,-56.74 119.27,-70.62 10.96,-4.27 21.61,-7.89 31.85,-10.52"
       style="fill:#e14c1e;fill-opacity:1;fill-rule:nonzero;stroke:none"
       transform="matrix(0.13333333,0,0,-0.13333333,0,220.82667)" />
    <path
       id="path3"
       d="m 1357.68,624.258 -7.17,8.535 -3.19,-10.691 c -2.57,-8.649 -5.44,-19.524 -8.27,-31.739 -1.75,-7.55 -3.48,-15.523 -5.11,-24.152 -10.35,-54.852 -16.82,-129.207 2.69,-195.117 19.29,-65.77 65.91,-123.184 158.74,-140.781 0.2,-0.04 0.38,-0.086 0.61,-0.106 11.99,-2.266 24.98,-3.73 38.56,-4.648 34.98,-2.364 75.15,-0.207 121.64,7.742 v 12.363 c -64.33,-11.191 -116.47,-11.523 -158,-3.691 -89.05,17.101 -131.17,69.726 -150.05,132.539 -18.68,62.785 -12.61,135.722 -2.41,189.476 1.17,6.09 2.38,11.637 3.59,17.164 0.34,1.547 0.66,3.321 1.01,4.828 0.36,-2.406 1.13,-4.742 1.57,-7.14 13.4,-71.481 64.7,-139.004 129.39,-194.805 53.76,-46.387 116.54,-84.601 174.9,-110.344 v 13.164 c -55.87,25.254 -115.87,62.024 -167.08,106.25 -59.08,50.883 -105.61,111.266 -122.11,173.555 -3.21,12.153 -5.7,24.332 -6.46,36.574 62.77,-66.222 146.61,-95.718 216.89,-135.187 29.41,-16.602 56.34,-34.727 78.76,-57.754 v 16.777 c -21.65,20.313 -46.52,36.797 -72.87,51.469 -76.4,42.656 -164.7,72.938 -225.63,145.719"
       style="fill:#e3621b;fill-opacity:1;fill-rule:nonzero;stroke:none"
       transform="matrix(0.13333333,0,0,-0.13333333,0,220.82667)" />
    <path
       id="path4"
       d="m 1386.05,27.8125 c -11.6,1.6406 -39.83,5.4297 -71.43,13.5859 -23.26,5.9571 -48.21,14.3555 -69.18,25.7422 -2.55,1.3946 -5.67,0.4766 -7.05,-2.0429 -1.38,-2.5196 -0.46,-5.6641 2.07,-7.0313 22.13,-12.0586 47.78,-20.5937 71.57,-26.7266 34.43,-8.8789 65.16,-12.6484 74.56,-14.082 7.37,-6.0937 14.56,-11.74999 21.7,-17.2578 h 17.19 c -2.65,1.97266 -5.39,4.11328 -8.09,6.18359 -3.63,2.76172 -7.19,5.35941 -10.89,8.30861 4.83,-0.5664 9.98,-0.8984 15.04,-1.3086 61,-4.94141 136.21,1.1055 205.82,20.5547 9.75,2.7461 19.34,5.7734 28.82,9.0351 v 11.0079 c -10.35,-3.6641 -20.89,-7.0508 -31.63,-10.0704 -66.27,-18.5546 -138.28,-24.6562 -197,-20.6132 -10.6,0.7109 -20.9,1.6601 -30.51,3.0546 49.6,85.3317 113.62,103.1757 185.96,108.6057 23.72,1.707 48.25,1.98 73.18,2.695 v 10.379 c -24.89,-0.691 -49.66,-0.984 -73.92,-2.695 -74.38,-5.164 -144.92,-25.672 -196.21,-117.3245"
       style="fill:#e14c1e;fill-opacity:1;fill-rule:nonzero;stroke:none"
       transform="matrix(0.13333333,0,0,-0.13333333,0,220.82667)" />
    <path
       id="path5"
       d="m 755.215,1306.63 c -76.395,42.66 -164.688,72.94 -225.629,145.72 l -7.164,8.53 -3.192,-10.69 c -2.57,-8.65 -5.445,-19.51 -8.269,-31.74 -1.746,-7.55 -3.488,-15.52 -5.121,-24.15 -10.34,-54.85 -16.809,-129.21 2.699,-195.12 19.285,-65.77 65.906,-123.18 158.738,-140.77 0.203,-0.05 0.391,-0.09 0.594,-0.11 12.024,-2.27 24.992,-3.73 38.586,-4.65 51.316,-3.46 113.973,2.96 190.879,22.71 10.555,-3.13 44.609,-14.27 85.059,-21.91 27.955,-5.27 59.055,-8.94 88.155,-7.18 3.32,0.18 5.82,3.03 5.62,6.33 -0.19,3.31 -3.03,5.82 -6.33,5.62 -27.6,-1.64 -57.89,1.86 -85.211,7.03 -37.117,7.03 -68.543,16.96 -81.492,20.91 -8.672,121.28 -72.512,177.51 -147.922,219.47 z m 104.394,-226.7 c -79.16,-17.1 -141.414,-18.94 -189.511,-9.86 -89.059,17.09 -131.176,69.73 -150.059,132.53 -18.676,62.79 -12.613,135.72 -2.402,189.48 1.156,6.09 2.367,11.63 3.586,17.16 0.336,1.55 0.656,3.33 1.011,4.83 0.356,-2.4 1.121,-4.74 1.571,-7.14 13.383,-71.48 64.703,-139 129.379,-194.8 63.339,-54.66 139.171,-97.97 205.546,-122.83 5.489,-2.05 11.055,-4.23 16.407,-6.02 -5.332,-1.26 -10.352,-2.23 -15.528,-3.35 z m -2.312,22.73 c -63.527,24.64 -135.988,66.47 -196.281,118.54 -59.071,50.88 -105.618,111.26 -122.118,173.55 -3.214,12.16 -5.695,24.33 -6.457,36.57 62.774,-66.22 146.602,-95.71 216.907,-135.18 73.125,-41.29 131.425,-91.47 141.425,-205.3 -10.742,3.29 -22.023,7.35 -33.476,11.82"
       style="fill:#e3621b;fill-opacity:1;fill-rule:nonzero;stroke:none"
       transform="matrix(0.13333333,0,0,-0.13333333,0,220.82667)" />
    <path
       id="path6"
       d="m 972.266,1128.45 c 29.104,-1.75 60.194,1.91 88.154,7.19 40.44,7.64 74.5,18.77 85.06,21.9 76.9,-19.75 139.56,-26.17 190.88,-22.71 13.59,0.92 26.56,2.38 38.58,4.65 0.21,0.02 0.39,0.07 0.6,0.11 92.83,17.59 139.44,75 158.74,140.78 19.51,65.9 13.04,140.26 2.69,195.12 -1.64,8.62 -3.36,16.6 -5.12,24.14 -2.81,12.25 -5.69,23.1 -8.26,31.75 l -3.2,10.69 -7.17,-8.54 c -60.93,-72.78 -149.24,-103.06 -225.63,-145.72 -75.41,-41.96 -139.24,-98.18 -147.91,-219.47 -12.95,-3.95 -44.38,-13.88 -81.5,-20.91 -27.32,-5.16 -57.6,-8.67 -85.2,-7.03 -3.3,0.2 -6.144,-2.31 -6.347,-5.61 -0.188,-3.31 2.312,-6.16 5.633,-6.34 z m 548.334,366.8 c 0.33,-1.5 0.67,-3.28 0.98,-4.82 1.21,-5.53 2.42,-11.08 3.6,-17.17 10.19,-53.75 16.26,-126.69 -2.41,-189.47 -18.89,-62.81 -60.98,-115.45 -150.06,-132.54 -48.09,-9.08 -110.35,-7.23 -189.51,9.86 -5.17,1.13 -10.2,2.09 -15.53,3.35 5.36,1.79 10.92,3.97 16.41,6.02 66.38,24.87 142.21,68.17 205.55,122.82 64.68,55.81 116.01,123.33 129.39,194.81 0.43,2.4 1.21,4.74 1.58,7.14 z m -227.13,-117.93 c 70.3,39.47 154.12,68.97 216.9,135.18 -0.76,-12.23 -3.25,-24.41 -6.46,-36.56 -16.5,-62.3 -63.04,-122.68 -122.12,-173.56 -60.29,-52.07 -132.75,-93.89 -196.27,-118.54 -11.47,-4.46 -22.73,-8.53 -33.49,-11.81 10.01,113.82 68.3,164.01 141.44,205.29"
       style="fill:#e3621b;fill-opacity:1;fill-rule:nonzero;stroke:none"
       transform="matrix(0.13333333,0,0,-0.13333333,0,220.82667)" />
    <path
       id="path7"
       d="m 1512.51,1094.2 c -0.19,0.04 -0.38,0.08 -0.58,0.11 -12.03,2.26 -24.98,3.72 -38.6,4.65 -51.31,3.45 -113.96,-2.97 -190.87,-22.71 -10.55,3.11 -44.62,14.26 -85.06,21.89 -27.95,5.28 -59.06,8.95 -88.16,7.19 -3.31,-0.17 -5.81,-3.03 -5.63,-6.33 0.21,-3.3 3.05,-5.82 6.35,-5.62 27.6,1.64 57.88,-1.86 85.21,-7.03 37.12,-7.03 68.54,-16.96 81.49,-20.91 8.67,-121.28 72.5,-177.506 147.92,-219.467 76.38,-42.657 164.69,-72.942 225.63,-145.719 l 5.97,-7.125 v 51.668 c -0.05,0.293 -0.13,0.586 -0.17,0.879 -13.39,71.476 -64.72,139.004 -129.4,194.797 -63.35,54.656 -139.17,97.967 -205.54,122.827 -5.5,2.05 -11.06,4.23 -16.42,6.03 5.33,1.25 10.36,2.22 15.54,3.34 79.16,17.1 141.41,18.96 189.51,9.87 84.22,-16.18 126.18,-64.25 146.48,-122.52 v 30.882 c -24.7,49.198 -69.12,89.158 -143.67,103.298 z m -190.01,-44.26 c 63.54,-24.64 135.98,-66.467 196.27,-118.538 59.08,-50.879 105.62,-111.265 122.12,-173.554 3.21,-12.153 5.7,-24.328 6.47,-36.567 -62.79,66.219 -146.63,95.711 -216.91,135.18 -73.13,41.289 -131.43,91.473 -141.43,205.289 10.75,-3.27 22.02,-7.34 33.48,-11.81"
       style="fill:#f8a50d;fill-opacity:1;fill-rule:nonzero;stroke:none"
       transform="matrix(0.13333333,0,0,-0.13333333,0,220.82667)" />
    <path
       id="path8"
       d="m 1068.38,609.363 c -7.91,83.297 0.62,170.207 18.76,238.719 -2.37,2.047 -4.65,4.109 -7.14,6.133 C 1020.25,799.563 982.715,749.828 962.297,705.352 924.719,622.824 943.281,558.012 983.574,506.281 1024,454.703 1087,417.461 1136.75,394.707 c 5.63,-2.586 10.86,-4.812 16.06,-7.012 -0.11,1.145 -0.28,2.293 -0.38,3.438 -50.55,52.269 -75.93,133.207 -84.05,218.23"
       style="fill:#bc1f24;fill-opacity:1;fill-rule:nonzero;stroke:none"
       transform="matrix(0.13333333,0,0,-0.13333333,0,220.82667)" />
    <path
       id="path9"
       d="m 974.141,498.867 c -42.489,53.801 -62.352,125.031 -22.969,210.934 0.058,0.179 0.148,0.379 0.254,0.535 5.097,11.121 11.418,22.531 18.527,34.148 -182.949,-244.855 103.127,-374.152 191.137,-404.14 -2.95,11.277 -5.11,22.488 -6.7,33.652 -7.17,2.938 -14.66,6.133 -22.66,9.793 -50.71,23.293 -115.12,61.031 -157.589,115.078"
       style="fill:#bc1f24;fill-opacity:1;fill-rule:nonzero;stroke:none"
       transform="matrix(0.13333333,0,0,-0.13333333,0,220.82667)" />
    <path
       id="path10"
       d="m 1097.19,839.191 c -16.63,-66.089 -24.44,-149.386 -16.87,-228.683 7.34,-77.633 29.65,-150.528 70.92,-200.008 -5.13,154.414 85.28,298.625 -54.05,428.691"
       style="fill:#bc1f24;fill-opacity:1;fill-rule:nonzero;stroke:none"
       transform="matrix(0.13333333,0,0,-0.13333333,0,220.82667)" />
    <path
       id="path11"
       d="m 969.953,744.484 c -7.109,-11.617 -13.43,-23.027 -18.527,-34.148 -0.106,-0.156 -0.196,-0.356 -0.254,-0.535 -39.383,-85.903 -19.52,-157.133 22.969,-210.934 42.469,-54.047 106.879,-91.785 157.589,-115.078 8,-3.66 15.49,-6.855 22.66,-9.793 11.62,-4.766 22.13,-8.723 30.67,-11.613 l 10.58,-3.594 -2.81,10.781 c -24.12,91.828 2.26,181.344 11.69,268.344 9.39,85.789 0.46,170.387 -93.45,247.613 4.27,12.875 14.35,44.235 30.1,78.578 11.6,25.293 26.25,52.005 43.55,73.545 2.09,2.61 1.68,6.36 -0.9,8.45 -2.59,2.06 -6.37,1.69 -8.45,-0.92 -18.26,-22.73 -33.24,-50.227 -45.12,-76.086 -17.17,-37.403 -27.78,-71.614 -31.32,-82.039 -60.63,-51.282 -102.121,-98.7 -128.977,-142.571 z M 1152.81,387.695 c -5.2,2.2 -10.43,4.426 -16.06,7.012 -49.75,22.754 -112.75,59.996 -153.176,111.574 -40.293,51.731 -58.855,116.543 -21.277,199.071 20.418,44.476 57.953,94.211 117.703,148.863 3.91,3.594 7.61,7.125 11.71,10.738 -1.63,-5.41 -3.07,-11.187 -4.57,-16.871 -18.14,-68.512 -26.67,-155.422 -18.76,-238.719 8.12,-85.023 33.5,-165.961 84.05,-218.23 1.68,-1.746 3.17,-3.731 4.91,-5.41 -1.44,0.578 -3.07,1.347 -4.53,1.972 z m 39.74,251.5 c -8.49,-80.172 -32.91,-165.621 -15.25,-255.113 -9.53,7.707 -18.03,16.777 -26.06,26.418 -41.27,49.48 -63.58,122.375 -70.92,200.008 -7.57,79.297 0.24,162.594 16.87,228.683 3.02,11.922 6.2,23.469 9.76,34.141 87.03,-74.016 94.25,-150.594 85.6,-234.137"
       style="fill:#f8a50d;fill-opacity:1;fill-rule:nonzero;stroke:none"
       transform="matrix(0.13333333,0,0,-0.13333333,0,220.82667)" />
    <path
       id="path12"
       d="m 731.797,746.816 c 79.043,-20.328 136.582,7.461 175.812,51.801 39.461,44.367 61.719,104.91 73.75,151.563 1.883,7.371 3.457,14.238 4.864,20.777 2.273,10.606 4.011,20.152 5.175,27.832 l 1.446,9.551 -8.731,-4.02 C 909.727,969.766 829.563,978.508 754.16,973.227 679.785,968.063 609.242,947.551 557.961,855.898 c -11.602,1.641 -39.832,5.442 -71.438,13.594 -23.261,5.953 -48.207,14.352 -69.175,25.742 -2.547,1.391 -5.672,0.469 -7.055,-2.046 -1.367,-2.512 -0.457,-5.657 2.082,-7.032 22.121,-12.058 47.777,-20.593 71.566,-26.726 34.438,-8.871 65.157,-12.649 74.555,-14.086 52.891,-43.692 99.551,-71.75 140.957,-87.879 10.969,-4.266 21.633,-7.883 31.867,-10.512 0.137,-0.066 0.34,-0.113 0.477,-0.137 z m 23.105,216.032 c 69.453,5.035 145.852,-2.649 219.239,26.035 -5.086,-9.278 -11.504,-17.883 -18.465,-26.192 -35.762,-42.636 -94.328,-72.777 -159.219,-90.882 -66.262,-18.555 -138.281,-24.668 -197,-20.625 -10.598,0.722 -20.902,1.664 -30.5,3.054 49.598,85.336 113.602,103.176 185.945,108.61 z M 593.43,841.281 c 61.035,-4.949 136.23,1.098 205.84,20.551 71.023,19.926 136.003,53.867 172.714,104.859 1.219,1.684 2.664,3.235 3.829,4.965 -0.286,-1.304 -0.676,-2.789 -0.989,-4.136 -1.082,-4.735 -2.187,-9.547 -3.504,-14.711 -11.757,-45.782 -33.781,-105.063 -71.457,-147.317 -37.812,-42.16 -90.078,-67.859 -165.984,-48.543 -40.949,10.555 -88.957,34.887 -144.57,77.321 -3.645,2.761 -7.204,5.371 -10.911,8.308 4.844,-0.562 9.985,-0.898 15.032,-1.297"
       style="fill:#f8a50d;fill-opacity:1;fill-rule:nonzero;stroke:none"
       transform="matrix(0.13333333,0,0,-0.13333333,0,220.82667)" />
    <path
       id="path13"
       d="m 822.121,1528.34 7.156,-8.54 3.196,10.7 c 2.566,8.64 5.437,19.52 8.269,31.74 1.75,7.55 3.477,15.5 5.117,24.15 3.957,20.93 7.305,44.72 8.899,69.79 h -12.024 c -1.562,-24.21 -4.804,-47.27 -8.671,-67.57 -1.153,-6.09 -2.364,-11.63 -3.575,-17.16 -0.34,-1.55 -0.664,-3.32 -1.015,-4.83 -0.36,2.4 -1.133,4.74 -1.571,7.15 -5.304,28.25 -16.523,55.86 -32.238,82.41 h -13.926 c 14.211,-22.84 24.746,-46.41 31.055,-70.24 3.223,-12.15 5.703,-24.33 6.477,-36.57 -47.129,49.71 -106.133,78.73 -162.375,106.81 h -26.602 c 67.59,-34.41 139.699,-65.59 191.828,-127.84"
       style="fill:#f8a50d;fill-opacity:1;fill-rule:nonzero;stroke:none"
       transform="matrix(0.13333333,0,0,-0.13333333,0,220.82667)" />
    <path
       id="path14"
       d="m 252.234,1438.61 c 7.332,-77.64 29.653,-150.53 70.918,-200.02 -4.992,150.03 80.246,290.43 -42.699,417.59 h -13.969 c -14.781,-64.2 -21.406,-142.64 -14.25,-217.57"
       style="fill:#bc1f24;fill-opacity:1;fill-rule:nonzero;stroke:none"
       transform="matrix(0.13333333,0,0,-0.13333333,0,220.82667)" />
    <path
       id="path15"
       d="m 134.211,1533.44 c -37.586,-82.53 -19.02,-147.33 21.269,-199.07 40.426,-51.58 103.438,-88.82 153.176,-111.58 5.633,-2.58 10.867,-4.8 16.067,-7 -0.114,1.14 -0.282,2.29 -0.387,3.43 -50.551,52.28 -75.938,133.21 -84.043,218.24 -7.168,75.36 -0.836,153.69 13.848,218.72 h -29.532 c -44.105,-44.48 -73.285,-85.45 -90.398,-122.74"
       style="fill:#bc1f24;fill-opacity:1;fill-rule:nonzero;stroke:none"
       transform="matrix(0.13333333,0,0,-0.13333333,0,220.82667)" />
    <path
       id="path16"
       d="m 146.047,1326.96 c -42.492,53.8 -62.3439,125.03 -22.969,210.93 0.067,0.18 0.145,0.38 0.258,0.54 5.098,11.12 11.41,22.53 18.519,34.14 C -41.082,1327.72 244.988,1198.42 333,1168.43 c -2.945,11.28 -5.113,22.49 -6.695,33.66 -7.18,2.93 -14.668,6.13 -22.668,9.79 -50.711,23.29 -115.11,61.03 -157.59,115.08"
       style="fill:#bc1f24;fill-opacity:1;fill-rule:nonzero;stroke:none"
       transform="matrix(0.13333333,0,0,-0.13333333,0,220.82667)" />
    <path
       id="path17"
       d="m 123.336,1538.43 c -0.113,-0.16 -0.191,-0.36 -0.258,-0.54 -39.3749,-85.9 -19.523,-157.13 22.969,-210.93 42.48,-54.05 106.879,-91.79 157.59,-115.08 8,-3.66 15.488,-6.86 22.668,-9.79 11.609,-4.77 22.125,-8.72 30.664,-11.62 l 10.582,-3.59 -2.813,10.78 c -24.113,91.83 2.258,181.34 11.692,268.35 7.109,64.96 3.629,129.25 -39.231,190.17 h -14.961 c 45.782,-60.02 49.117,-122.24 42.219,-188.89 -8.488,-80.18 -32.91,-165.63 -15.238,-255.12 -9.535,7.71 -18.043,16.78 -26.067,26.42 -41.265,49.49 -63.586,122.38 -70.918,200.02 -7.156,74.93 -0.531,153.37 14.25,217.57 h -12.343 c -14.684,-65.03 -21.016,-143.36 -13.848,-218.72 8.105,-85.03 33.492,-165.96 84.043,-218.24 1.691,-1.75 3.168,-3.73 4.914,-5.41 -1.441,0.58 -3.066,1.35 -4.527,1.98 -5.2,2.2 -10.434,4.42 -16.067,7 -49.738,22.76 -112.75,60 -153.176,111.58 -40.289,51.74 -58.855,116.54 -21.269,199.07 17.113,37.29 46.293,78.26 90.398,122.74 h -16.734 c -28.012,-29.2 -49.777,-57.05 -66.02,-83.61 -7.109,-11.61 -13.421,-23.02 -18.519,-34.14"
       style="fill:#f8a50d;fill-opacity:1;fill-rule:nonzero;stroke:none"
       transform="matrix(0.13333333,0,0,-0.13333333,0,220.82667)" />
    <path
       id="path18"
       d="m 934.063,1307.95 -4.266,-10.28 10.984,2.11 c 8.848,1.68 19.797,4.16 31.965,7.27 7.508,1.91 15.379,4.05 23.797,6.56 53.437,16.07 122.437,44.57 171.977,92.24 49.49,47.42 78.99,115.24 51.84,205.74 -0.05,0.18 -0.09,0.41 -0.18,0.56 -3.52,11.73 -8.2,23.92 -13.64,36.42 -1.12,2.56 -2.05,5.03 -3.26,7.61 h -13.42 c 7.98,-16.55 14.35,-32.43 18.86,-47.47 25.83,-86.9 -1.49,-148.54 -48.53,-194.21 -47.15,-45.51 -114.7,-73.7 -167.112,-89.38 -5.937,-1.78 -11.426,-3.26 -16.875,-4.74 -1.535,-0.41 -3.254,-0.95 -4.746,-1.33 1.953,1.41 3.68,3.19 5.594,4.67 57.289,44.8 93.609,121.49 113.359,204.58 9.99,42.09 15.7,85.76 17.8,127.88 h -12.12 c -2.09,-41.29 -7.57,-84.01 -17.35,-125.09 -17.96,-75.89 -50.13,-145 -97.83,-188.34 -9.297,-8.42 -18.957,-16.24 -29.465,-22.55 29.844,86.19 17.442,174.2 20.098,254.78 0.996,28.15 3.75,55.25 10.48,81.2 H 969.57 c -6.57,-26.23 -9.246,-53.33 -10.058,-80.82 -2.657,-87.47 11.113,-179.77 -25.449,-267.41"
       style="fill:#f8a50d;fill-opacity:1;fill-rule:nonzero;stroke:none"
       transform="matrix(0.13333333,0,0,-0.13333333,0,220.82667)" />
    <path
       id="path19"
       d="m 79.5234,1626.71 c 8.1641,9.19 15.4297,19.16 22.1796,29.47 H 89.2227 c -5.4414,-7.86 -11.1485,-15.54 -17.4493,-22.6 C 52.1953,1611.75 28.6172,1594.52 0,1585.47 v -10.61 c 32.0234,9.42 58.4961,28.09 79.5234,51.85"
       style="fill:#e14c1e;fill-opacity:1;fill-rule:nonzero;stroke:none"
       transform="matrix(0.13333333,0,0,-0.13333333,0,220.82667)" />
    <path
       id="path20"
       d="m 154.301,226.367 c 27.957,-5.281 59.058,-8.945 88.16,-7.187 3.312,0.175 5.816,3.027 5.625,6.328 -0.199,3.301 -3.043,5.82 -6.348,5.617 -27.59,-1.641 -57.875,1.863 -85.199,7.031 -37.125,7.032 -68.5507,16.961 -81.4999,20.918 C 69.4023,337.988 40.332,389.25 0,427.07 V 410.293 C 33.3711,376.035 56.6992,330.82 62.6875,262.754 51.9336,266.035 40.6602,270.098 29.2031,274.57 19.6328,278.281 9.89844,282.383 0,286.855 v -13.164 c 10.4023,-4.578 20.6016,-8.711 30.6406,-12.488 5.4922,-2.043 11.0547,-4.219 16.4102,-6.015 -5.336,-1.262 -10.3555,-2.227 -15.5313,-3.352 C 20.6914,249.504 10.1875,247.434 0,245.664 v -12.363 c 21.7227,3.73 44.7617,8.672 69.2422,14.961 10.5586,-3.114 44.6168,-14.258 85.0588,-21.895"
       style="fill:#e3621b;fill-opacity:1;fill-rule:nonzero;stroke:none"
       transform="matrix(0.13333333,0,0,-0.13333333,0,220.82667)" />
    <path
       id="path21"
       d="m 547.449,311.504 c 92.824,17.59 139.446,75 158.735,140.777 19.511,65.903 13.035,140.258 2.695,195.114 -1.641,8.625 -3.371,16.601 -5.117,24.148 -2.824,12.242 -5.696,23.09 -8.274,31.742 l -3.183,10.692 -7.168,-8.536 C 624.191,632.66 535.898,602.379 459.504,559.723 384.094,517.758 320.258,461.535 311.594,340.254 c -12.957,-3.953 -44.383,-13.887 -81.5,-20.918 -27.328,-5.164 -57.606,-8.672 -85.207,-7.031 -3.301,0.207 -6.141,-2.317 -6.34,-5.614 -0.192,-3.3 2.312,-6.152 5.625,-6.328 29.101,-1.758 60.199,1.903 88.156,7.188 40.445,7.637 74.5,18.777 85.059,21.902 76.902,-19.746 139.566,-26.172 190.879,-22.715 13.597,0.918 26.562,2.383 38.586,4.649 0.199,0.019 0.39,0.07 0.597,0.117 z M 465.375,549.23 c 70.301,39.465 154.137,68.965 216.91,135.184 -0.769,-12.242 -3.25,-24.418 -6.472,-36.566 C 659.328,585.551 612.781,525.172 553.703,474.293 493.41,422.227 420.953,380.391 357.426,355.754 c -11.469,-4.473 -22.731,-8.535 -33.481,-11.816 10.004,113.82 68.301,164.007 141.43,205.292 z M 355.113,333.02 c -5.175,1.121 -10.211,2.089 -15.531,3.347 5.356,1.797 10.918,3.977 16.41,6.016 66.375,24.875 142.203,68.183 205.547,122.832 64.672,55.801 115.992,123.324 129.379,194.805 0.441,2.402 1.211,4.742 1.574,7.144 0.352,-1.504 0.672,-3.281 1.016,-4.828 1.211,-5.527 2.422,-11.074 3.574,-17.164 10.215,-53.754 16.277,-126.695 -2.402,-189.477 -18.879,-62.812 -60.996,-115.441 -150.055,-132.539 -48.09,-9.074 -110.352,-7.226 -189.512,9.864"
       style="fill:#e3621b;fill-opacity:1;fill-rule:nonzero;stroke:none"
       transform="matrix(0.13333333,0,0,-0.13333333,0,220.82667)" />
    <path
       id="path22"
       d="m 843.164,125.324 c -19.285,65.77 -65.906,123.192 -158.738,140.781 -0.196,0.04 -0.391,0.086 -0.598,0.106 -12.012,2.277 -24.988,3.73 -38.574,4.648 -51.324,3.469 -113.984,-2.957 -190.887,-22.703 -10.558,3.125 -44.609,14.266 -85.054,21.903 -27.958,5.273 -59.059,8.937 -88.161,7.187 -3.316,-0.183 -5.82,-3.035 -5.625,-6.336 0.203,-3.301 3.043,-5.82 6.344,-5.617 27.598,1.641 57.875,-1.863 85.203,-7.031 37.121,-7.032 68.547,-16.961 81.5,-20.918 8.668,-121.278 72.5,-177.5002 147.91,-219.4612 C 607.535,11.6992 618.867,5.82031 630.293,0 h 26.602 C 638.234,9.32813 619.883,18.5352 602.359,28.3711 529.23,69.6602 470.934,119.844 460.93,233.664 471.676,230.383 482.941,226.32 494.41,221.848 557.945,197.207 630.391,155.383 690.684,103.313 727.141,71.9063 758.82,36.8359 781.738,0 h 13.926 c -24.012,40.5664 -58.055,78.6445 -97.137,112.383 -63.351,54.66 -139.175,97.969 -205.558,122.832 -5.489,2.043 -11.051,4.219 -16.406,6.015 5.324,1.258 10.355,2.227 15.531,3.352 79.16,17.098 141.422,18.965 189.519,9.863 C 770.664,237.344 812.785,184.719 831.66,121.906 843.293,82.8438 845.313,39.8555 842.734,0 h 12.024 c 2.566,40.6133 0.469,84.5703 -11.594,125.324"
       style="fill:#f8a50d;fill-opacity:1;fill-rule:nonzero;stroke:none"
       transform="matrix(0.13333333,0,0,-0.13333333,0,220.82667)" />
    <path
       id="path23"
       d="m 266.484,0 h 13.969 c -3.59,3.71094 -7.394,7.41406 -11.351,11.0938 C 268.195,7.48047 267.348,3.73047 266.484,0"
       style="fill:#bc1f24;fill-opacity:1;fill-rule:nonzero;stroke:none"
       transform="matrix(0.13333333,0,0,-0.13333333,0,220.82667)" />
    <path
       id="path24"
       d="M 251.906,26.125 C 242.246,17.2969 233.117,8.58594 224.609,0 h 29.532 c 1.539,6.85547 3.179,13.4766 4.906,19.9883 -2.367,2.0547 -4.645,4.1133 -7.141,6.1367"
       style="fill:#bc1f24;fill-opacity:1;fill-rule:nonzero;stroke:none"
       transform="matrix(0.13333333,0,0,-0.13333333,0,220.82667)" />
    <path
       id="path25"
       d="m 282.984,57.4414 c 4.266,12.8711 14.34,44.2306 30.102,78.5746 11.586,25.293 26.246,52.004 43.547,73.547 2.09,2.605 1.668,6.355 -0.899,8.445 -2.597,2.07 -6.371,1.68 -8.449,-0.918 C 329.023,194.355 314.039,166.855 302.156,141.008 284.98,103.605 274.379,69.3867 270.832,58.9648 246.875,38.6836 226.188,19.0938 207.875,0 h 16.734 c 8.508,8.58594 17.637,17.2969 27.297,26.125 3.91,3.5938 7.617,7.1172 11.711,10.7383 -1.625,-5.418 -3.066,-11.1875 -4.57,-16.875 C 257.32,13.4766 255.68,6.85547 254.141,0 h 12.343 c 0.864,3.73047 1.711,7.48047 2.618,11.0938 3.007,11.9335 6.203,23.4765 9.746,34.1523 C 296.449,30.2852 310.637,15.207 322.238,0 h 14.961 c -13.726,19.5234 -31.426,38.7031 -54.215,57.4414"
       style="fill:#f8a50d;fill-opacity:1;fill-rule:nonzero;stroke:none"
       transform="matrix(0.13333333,0,0,-0.13333333,0,220.82667)" />
    <path
       id="path26"
       d="m 1078.77,236.945 c -8.19,27.246 -19.25,56.543 -34.2,81.563 -1.7,2.879 -5.38,3.777 -8.24,2.09 -2.83,-1.711 -3.76,-5.371 -2.06,-8.243 14.17,-23.722 25.01,-52.207 32.99,-78.847 10.88,-36.192 16.52,-68.645 18.97,-81.992 C 1015.6,108.234 983.605,56.1133 969.57,0 h 12.453 c 13.329,51.3984 42.547,98.1445 106.617,138.867 2.04,-11.054 3.61,-22.929 4.95,-35.156 3.45,-31.8243 4.35,-67.1172 2.5,-103.711 h 12.12 c 1.98,39.3555 0.68,77.1602 -3.43,111.152 -0.72,5.813 -1.34,11.75 -2.21,17.317 3.56,-4.153 6.74,-8.156 10.13,-12.239 35.09,-42.3902 60.25,-81.0737 77.16,-116.23 h 13.42 c -20.9,45.1758 -54.71,95.4023 -104.8,151.359 -2.07,10.809 -7.85,46.161 -19.71,85.586"
       style="fill:#f8a50d;fill-opacity:1;fill-rule:nonzero;stroke:none"
       transform="matrix(0.13333333,0,0,-0.13333333,0,220.82667)" />
    <path
       id="path27"
       d="m 158.129,142.871 c 2.273,10.598 4.012,20.149 5.184,27.832 l 1.433,9.543 -8.723,-4.023 C 105.566,152.793 52.4766,149.316 0,147.832 v -10.379 c 48.1055,1.348 97.707,4.453 146.047,23.34 -5.09,-9.277 -11.5,-17.883 -18.465,-26.191 C 97.7422,99.0234 52.082,72.1797 0,53.7813 V 42.7734 c 59.543,20.5274 112.227,51.8164 143.891,95.8316 1.222,1.68 2.672,3.231 3.828,4.961 -0.281,-1.3 -0.672,-2.785 -0.985,-4.132 -1.078,-4.746 -2.191,-9.551 -3.504,-14.715 C 133.434,86.5938 116.371,39.2188 89.2227,0 h 12.4803 c 25.891,39.4727 42.027,85.0898 51.563,122.09 1.89,7.363 3.464,14.238 4.863,20.781"
       style="fill:#e14c1e;fill-opacity:1;fill-rule:nonzero;stroke:none"
       transform="matrix(0.13333333,0,0,-0.13333333,0,220.82667)" />
    <path
       id="path28"
       d="m 4.37891,702.406 c 2.57422,8.649 5.4375,19.524 8.26949,31.746 1.7539,7.543 3.4805,15.496 5.1211,24.145 10.3477,54.859 16.8164,129.207 -2.6953,195.117 C 11.2813,966.379 6.06641,978.844 0,990.902 V 960.02 C 1.16797,956.672 2.55078,953.414 3.57422,950 22.25,887.219 16.1875,814.277 5.97656,760.523 4.82031,754.434 3.60547,748.887 2.39453,743.359 2.05469,741.809 1.73047,740.035 1.38281,738.531 1.07031,740.641 0.382813,742.688 0,744.797 v -51.668 l 1.19141,-1.414 3.1875,10.691"
       style="fill:#f8a50d;fill-opacity:1;fill-rule:nonzero;stroke:none"
       transform="matrix(0.13333333,0,0,-0.13333333,0,220.82667)" />
    <path
       id="path29"
       d="m 340.422,577.758 c 49.5,47.422 78.992,115.242 51.844,205.742 -0.043,0.184 -0.086,0.406 -0.176,0.563 -3.516,11.722 -8.203,23.925 -13.645,36.41 -20.543,47.156 -55.105,99.832 -108.062,158.976 -2.067,10.805 -7.852,46.161 -19.703,85.591 -8.2,27.25 -19.25,56.54 -34.2,81.56 -1.695,2.87 -5.382,3.77 -8.242,2.09 -2.832,-1.71 -3.765,-5.37 -2.054,-8.24 14.16,-23.73 25,-52.21 32.988,-78.85 10.867,-36.19 16.519,-68.651 18.969,-81.995 -103.672,-63.527 -124.18,-146.078 -126.719,-232.339 -2.66,-87.469 11.109,-179.77 -25.449,-267.403 l -4.27,-10.289 10.985,2.11 c 8.851,1.687 19.804,4.156 31.968,7.281 7.512,1.91 15.375,4.043 23.797,6.558 53.442,16.063 122.438,44.571 171.969,92.235 z M 143.453,746.887 c 2.965,83.926 20.68,158.769 117.098,220.07 2.047,-11.047 3.609,-22.934 4.941,-35.148 7.371,-67.754 3.61,-151.321 -14.847,-228.817 C 232.688,627.109 200.52,557.988 152.82,514.66 c -9.297,-8.426 -18.961,-16.242 -29.461,-22.555 29.844,86.192 17.442,174.204 20.094,254.782 z m 4.664,-254.602 c -1.543,-0.406 -3.262,-0.941 -4.758,-1.324 1.961,1.414 3.688,3.191 5.598,4.676 57.293,44.789 93.602,121.476 113.359,204.57 19.344,81.41 22.872,168.656 14.364,239.031 -0.703,5.821 -1.332,11.75 -2.196,17.321 3.559,-4.157 6.739,-8.157 10.118,-12.243 51.621,-62.382 81.945,-116.812 96.027,-163.691 25.836,-86.91 -1.492,-148.551 -48.527,-194.219 -47.153,-45.508 -114.7,-73.699 -167.122,-89.379 -5.925,-1.777 -11.417,-3.257 -16.863,-4.742"
       style="fill:#f8a50d;fill-opacity:1;fill-rule:nonzero;stroke:none"
       transform="matrix(0.13333333,0,0,-0.13333333,0,220.82667)" />
  </g>
</svg>
